<svg xmlns="http://www.w3.org/2000/svg" viewBox="0 0 77.45 72.53"><defs><style>.cls-1{fill:#ed6d30;}</style></defs><g id="Слой_2" data-name="Слой 2"><g id="Слой_1-2" data-name="Слой 1"><g id="Слой_2-2" data-name="Слой 2"><g id="Слой_1-2-2" data-name="Слой 1-2"><ellipse class="cls-1" cx="27.24" cy="64.46" rx="7.26" ry="8.07"/><path class="cls-1" d="M19,48.78c.89-.34,1.75-1.08,2.63-1.45a14.89,14.89,0,0,1,3.58-1,15.15,15.15,0,0,1,10.34,2.51,17.15,17.15,0,0,1,3.94,3.61c1.17,1.44,1.74,3.32,2.81,4.85a3.34,3.34,0,0,0,4.37,1.18,2.88,2.88,0,0,0,1.73-2,5,5,0,0,0-.1-2.07,18,18,0,0,0-4.37-7.5c-6-6.7-14.9-9.84-23.14-7.11a24.1,24.1,0,0,0-3.15,1.32A5.48,5.48,0,0,0,15,43.8c-1,2.38,1.25,5.65,3.63,5.1Z"/><path class="cls-1" d="M8.46,31.87a15.92,15.92,0,0,0,3.85-1.43,31.82,31.82,0,0,1,28.07-.13,36.42,36.42,0,0,1,16,15.92,18.59,18.59,0,0,0,2.33,3.88,4.07,4.07,0,0,0,3.77,1.58,3.4,3.4,0,0,0,2.46-3,6.42,6.42,0,0,0-.54-2.76c-2.94-7.66-9.13-14.49-15.23-19.12a37.21,37.21,0,0,0-21.54-8C20.52,18.62,13.5,21,7.19,24.54,5.29,25.6,4,27.34,4.75,29.8,5.38,31.8,6.87,32.15,8.46,31.87Z"/><path class="cls-1" d="M3.92,13.89a9.6,9.6,0,0,0,2.62-.81c7.78-3.24,15.39-5.3,23.76-4.6a45.85,45.85,0,0,1,23,8.63c1.1.8,2.17,1.66,3.21,2.56a49.27,49.27,0,0,1,5.12,5.2,56.79,56.79,0,0,1,6,8.62,19.64,19.64,0,0,0,3,4.43c1.66,1.58,5,2.52,6.32-.07,2-3.94-2.6-9.33-4.51-12.19A59.61,59.61,0,0,0,64.6,16.2a58.74,58.74,0,0,0-19.84-13l-1.53-.58C30-2,15.76-.33,3.26,6.14,1.64,7-.1,8.14,0,10.44a3.55,3.55,0,0,0,3.46,3.48Z"/></g></g></g></g></svg>