<svg xmlns="http://www.w3.org/2000/svg" viewBox="0 0 226.77 85.04"><defs><style>.cls-1{fill:#ed6d30;}</style></defs><g id="Слой_2" data-name="Слой 2"><g id="Слой_1-2" data-name="Слой 1"><ellipse class="cls-1" cx="176.48" cy="64.48" rx="7.26" ry="8.07"/><path class="cls-1" d="M168.2,48.8c.89-.34,1.75-1.08,2.63-1.45a14.52,14.52,0,0,1,3.58-1,15.14,15.14,0,0,1,10.34,2.51,17.26,17.26,0,0,1,3.94,3.61c1.17,1.44,1.74,3.32,2.81,4.85a3.34,3.34,0,0,0,4.37,1.18,2.92,2.92,0,0,0,1.73-2,5.16,5.16,0,0,0-.1-2.07,17.92,17.92,0,0,0-4.37-7.5c-6-6.7-14.9-9.84-23.14-7.11a22.8,22.8,0,0,0-3.15,1.32,5.4,5.4,0,0,0-2.65,2.68c-1,2.38,1.25,5.65,3.63,5.1Z"/><path class="cls-1" d="M157.7,31.89a16.19,16.19,0,0,0,3.85-1.43c9-4.26,19-4.57,28.07-.13a36.41,36.41,0,0,1,16,15.92,18.41,18.41,0,0,0,2.33,3.88,4.08,4.08,0,0,0,3.77,1.58,3.42,3.42,0,0,0,2.46-3.05,6.57,6.57,0,0,0-.54-2.76c-2.94-7.66-9.13-14.49-15.23-19.12a37.22,37.22,0,0,0-21.54-8c-7.11-.14-14.13,2.26-20.44,5.78-1.9,1.06-3.23,2.8-2.44,5.26C154.62,31.82,156.11,32.17,157.7,31.89Z"/><path class="cls-1" d="M153.16,13.91a9.93,9.93,0,0,0,2.62-.81c7.78-3.24,15.39-5.3,23.76-4.6a45.81,45.81,0,0,1,23,8.63c1.1.8,2.17,1.66,3.21,2.56a49.33,49.33,0,0,1,5.12,5.2,56.78,56.78,0,0,1,6,8.62,19.46,19.46,0,0,0,3,4.43c1.66,1.58,5,2.52,6.32-.07,2-3.94-2.6-9.33-4.51-12.19a59.81,59.81,0,0,0-7.84-9.46A58.89,58.89,0,0,0,194,3.26l-1.53-.58C179.25-2,165-.31,152.5,6.16c-1.62.83-3.36,2-3.26,4.3a3.55,3.55,0,0,0,3.46,3.48Z"/><path class="cls-1" d="M6.31,76.78a9.86,9.86,0,0,1-2.25-2.44c-2.27-3.71-2.63-8.14-3-12.47C.77,58.56.31,55.27.12,52c-.17-3-.32-6.44.72-9.3a5.09,5.09,0,0,1,1-1.73c1.57-1.69,4.23-.39,4.91,1.69a10.61,10.61,0,0,1,.35,3.33c0,2,0,4,0,6.05,0,1.19-.54,4.48.35,5.38a1.54,1.54,0,0,0,.82.37c1.48.29,4,.33,4.72-1.52.77-2.08.07-5.16-.06-7.34l-.46-8.18c-.13-2.15,1-2.87,2.86-2.75a4.47,4.47,0,0,1,2.8.95c1.51,1.41,1.24,4.24,1.22,6.22,0,3.64-.09,7.28-.09,10.92A2.47,2.47,0,0,0,20,58.32c.54.36,1.31.39,1.64,1,.53.94-.33,1.79-.6,2.62a10.5,10.5,0,0,0,0,3.54,37.32,37.32,0,0,0,.53,5.79,11,11,0,0,0,2.26,4.3,3,3,0,0,1,.59,1.13c.6,2.79-2.75,4.32-4.58,3.08-3.57-2.41-4-9-4.29-13.15a10.36,10.36,0,0,0-.45-2.78,3.59,3.59,0,0,0-3-2.25c-1.74-.28-3.86-.41-4.32,1.92a18.12,18.12,0,0,0,1.33,9.89c.4,1,1.14,2.55.33,3.53S7.39,77.57,6.31,76.78Z"/><path class="cls-1" d="M37.8,53.45a13.44,13.44,0,0,0-1.68-3.1,15.92,15.92,0,0,0-2.31-2.65,4.07,4.07,0,0,0-5.58-.07,12.71,12.71,0,0,0-2.69,4.48,16.6,16.6,0,0,0-1.24,7.52A14.87,14.87,0,0,0,26,65.39,6.42,6.42,0,0,0,30.37,69c2.59.47,5.47-1.34,6.89-3.72a13.14,13.14,0,0,0,1.45-5.73A14.44,14.44,0,0,0,37.8,53.45Zm-3.24,7.43c-.27,1.28-1.79,1.55-2.79,1.55a4,4,0,0,1-3.3-1.37,5.5,5.5,0,0,1-.74-3.6A6.38,6.38,0,0,1,29,53.66c.81-1,2.21-1.5,3.2-.54,1.77,1.72,2.26,4.14,2.44,6.64,0,.13,0,.25,0,.38A3,3,0,0,1,34.56,60.88Z"/><path class="cls-1" d="M39.71,59a1.32,1.32,0,0,1-.38-.54c-.62-1.65,1.23-2.65,2.29-3.09l4.53-1.88a.46.46,0,0,0,.24-.17c.37-.59.16-1.58.15-2.25,0-3.22.12-6.44.21-9.65,0-1.51.07-3,1.13-4.09a3.78,3.78,0,0,1,3.08-1,2.49,2.49,0,0,1,2.61,2.43,7.5,7.5,0,0,1-.5,2.19,22.55,22.55,0,0,0-.73,9.87,1.9,1.9,0,0,0,.15.59c.3.62,1.14.52,1.66.5.73,0,1.45-.14,2.17-.21a6,6,0,0,1,2.66.18,1.91,1.91,0,0,1,1.24,1.94c-.16,1.22-1.39,1.72-2.29,2.11a18.75,18.75,0,0,1-4.32,1.2,1.31,1.31,0,0,0-.84.36,1.58,1.58,0,0,0-.27,1,46.58,46.58,0,0,0,.3,7.18c.08.71.17,1.41.25,2.12s.11,1.48.26,2.18a73.68,73.68,0,0,0,1.55,9.38,23.56,23.56,0,0,1,.6,2.48c.18,1.16.11,3.77-1.55,3.21C52.57,84.52,51.58,82.3,51,81a24.88,24.88,0,0,1-1.85-5.37A56,56,0,0,1,48,66.52c-.13-2.23-.07-4.53-.42-6.74a1.12,1.12,0,0,0-.14-.48,1.06,1.06,0,0,0-1.08-.3c-1.16.16-2.32.4-3.5.51C41.86,59.6,40.57,59.75,39.71,59Z"/><path class="cls-1" d="M131.16,47.25a1.55,1.55,0,0,1-.38-.55c-.62-1.64,1.23-2.64,2.29-3.08l4.53-1.88a.53.53,0,0,0,.25-.17,4.6,4.6,0,0,0,.14-2.25c0-3.22.12-6.44.21-9.65,0-1.51.07-3,1.13-4.09a3.71,3.71,0,0,1,3.08-1A2.47,2.47,0,0,1,145,27a7.64,7.64,0,0,1-.5,2.2,22.55,22.55,0,0,0-.73,9.87,2,2,0,0,0,.15.59c.3.62,1.14.51,1.66.5.73,0,1.45-.14,2.17-.22a6.12,6.12,0,0,1,2.66.18,1.9,1.9,0,0,1,1.24,2c-.16,1.22-1.39,1.72-2.29,2.1a18.78,18.78,0,0,1-4.32,1.21,1.35,1.35,0,0,0-.84.35,1.6,1.6,0,0,0-.27,1,46.53,46.53,0,0,0,.3,7.18c.08.71.17,1.42.25,2.13s.11,1.48.27,2.17a70,70,0,0,0,1.55,9.38c.21.83.46,1.64.59,2.49.18,1.16.11,3.77-1.55,3.21-1.33-.45-2.33-2.67-2.94-3.92a24.88,24.88,0,0,1-1.85-5.37,56.17,56.17,0,0,1-1.1-9.16c-.13-2.23-.07-4.52-.42-6.73a1.2,1.2,0,0,0-.14-.49,1,1,0,0,0-1.07-.29c-1.17.16-2.33.4-3.5.51S132,48,131.16,47.25Z"/><path class="cls-1" d="M78.15,64.23a29.23,29.23,0,0,1-2.74,1.51,5.21,5.21,0,0,1-4.3.1,1.5,1.5,0,0,1-.63-2.09,12.86,12.86,0,0,1,2.46-2.93c.93-.94,1.91-1.81,2.89-2.68a10.08,10.08,0,0,0,3.09-3.93,6.91,6.91,0,0,0-.58-5.29,10.35,10.35,0,0,0-9.84-5.05,7.1,7.1,0,0,0-5.69,5.45,29.23,29.23,0,0,0-.72,6.81,19.38,19.38,0,0,0,.83,7,11.66,11.66,0,0,0,1.55,3c3.3,4.6,10.91,7.13,15.15,2.63.91-1,1.86-3,1.15-4.36-.41-.8-1.51-.68-2.17-.42Zm-9.51-6.9a2.62,2.62,0,0,1-.78-.46,3.72,3.72,0,0,1-1-1.74c-.7-2.31.37-5.29,2.54-6,1.74-.56,4.22-.1,4.75,2.14a4.53,4.53,0,0,1-.25,2.67C73.11,55.84,70.64,58.06,68.64,57.33Z"/><path class="cls-1" d="M127.79,57.9c-.92.46-1.77,1.14-2.74,1.51a5.17,5.17,0,0,1-4.3.09,1.48,1.48,0,0,1-.63-2.08,12.91,12.91,0,0,1,2.46-2.94c.93-.94,1.91-1.8,2.89-2.67a10.13,10.13,0,0,0,3.08-3.93,6.89,6.89,0,0,0-.57-5.3,10.35,10.35,0,0,0-9.85-5A7.11,7.11,0,0,0,112.45,43a29.35,29.35,0,0,0-.72,6.81,19.41,19.41,0,0,0,.83,7,11.82,11.82,0,0,0,1.55,3c3.3,4.59,10.91,7.12,15.15,2.62.91-1,1.86-3,1.15-4.36-.41-.79-1.51-.68-2.17-.41C128.08,57.76,127.94,57.83,127.79,57.9ZM118.28,51a2.43,2.43,0,0,1-.78-.46,3.64,3.64,0,0,1-1-1.73c-.7-2.31.37-5.3,2.54-6,1.73-.57,4.22-.1,4.75,2.14a4.49,4.49,0,0,1-.25,2.66C122.75,49.5,120.28,51.72,118.28,51Z"/><path class="cls-1" d="M82.13,46.78c-.51-2.67-1.15-5.31-1.54-8-.44-3.08-.21-6.39,1.69-8.85.7-.91,1.85-1.69,2.83-1.16a2.28,2.28,0,0,1,.87,1c.84,1.71.6,4.11.73,6q.23,3.49.53,7c.5,5.95,1.19,11.88,1.65,17.83.18,2.47.53,5.15-.23,7.55-.44,1.4-1.83,3-3.3,2.41a2.55,2.55,0,0,1-1.13-1c-1.5-2.14-1.16-4.95-1.21-7.47-.07-3.64.09-7.33-.24-11C82.64,49.69,82.4,48.23,82.13,46.78Z"/><path class="cls-1" d="M98.4,52.6a.57.57,0,0,0-.11.41c0,1.68.07,3.36.18,5s.35,3.3.35,5a4.14,4.14,0,0,1-1.25,3.34,2.1,2.1,0,0,1-3-.5,5.77,5.77,0,0,1-.9-3.27c-.13-4.19-.21-8.38-.27-12.57,0-1.75,0-3.51,0-5.27a53.86,53.86,0,0,1-.13-5.54,3.76,3.76,0,0,1,.92-2.64,1.68,1.68,0,0,1,2.24,0,11.63,11.63,0,0,1,1.86,3c.62,1.16,1.22,2.33,1.8,3.52,1.17,2.41,2.24,4.88,3.22,7.39a4.57,4.57,0,0,0,1.47,2.33.86.86,0,0,0,1.28-.26,2.94,2.94,0,0,0,.17-2c-.27-2.54-.78-5-1.26-7.48a63,63,0,0,0-2.3-7.3A12.9,12.9,0,0,1,102,33c-.23-2.36,1.54-4.68,3.74-3.39a4.92,4.92,0,0,1,1.7,2c1.61,3,2.19,6.54,2.55,10a111,111,0,0,1,.52,12.5c0,2.64.5,7.24-2.63,8a3.73,3.73,0,0,1-.67.09c-1.27.07-2.43-1.27-3.22-2.23a31.16,31.16,0,0,1-3-4.69l0-.11A8.38,8.38,0,0,0,99,52.7C98.81,52.57,98.57,52.45,98.4,52.6Z"/></g></g></svg>